rotated_Sprint_04500001_forces_filt50Hz.mot
version=1
nRows=53
nColumns=19
inDegrees=yes
endheader
time	R_ground_force_vx	R_ground_force_vy	R_ground_force_vz	R_ground_force_px	R_ground_force_py	R_ground_force_pz	R_ground_torque_x	R_ground_torque_y	R_ground_torque_z	L_ground_force_vx	L_ground_force_vy	L_ground_force_vz	L_ground_force_px	L_ground_force_py	L_ground_force_pz	L_ground_torque_x	L_ground_torque_y	L_ground_torque_z	
0.981000	  0.000000	  0.000000	  0.000000	  0.714586	  0.000000	 -0.310904	  0.000000	  0.000000	  0.000000	330.111833	479.919562	-93.484562	  0.334323	  0.000000	 -0.382983	  0.000000	 67.131575	  0.000000
0.981500	  0.000000	  0.000000	  0.000000	  0.716553	  0.000000	 -0.309282	  0.000000	  0.000000	  0.000000	323.729127	464.403521	-88.354950	  0.330994	  0.000000	 -0.382632	  0.000000	 62.716670	  0.000000
0.982000	  0.000000	  0.000000	  0.000000	  0.718521	  0.000000	 -0.307660	  0.000000	  0.000000	  0.000000	317.097348	449.090905	-83.042633	  0.327995	  0.000000	 -0.382210	  0.000000	 58.076539	  0.000000
0.982500	  0.000000	  0.000000	  0.000000	  0.720488	  0.000000	 -0.306038	  0.000000	  0.000000	  0.000000	310.233286	433.977125	-77.581938	  0.325327	  0.000000	 -0.381717	  0.000000	 53.246618	  0.000000
0.983000	  0.000000	  0.000000	  0.000000	  0.722455	  0.000000	 -0.304416	  0.000000	  0.000000	  0.000000	303.155015	419.057323	-72.008382	  0.322993	  0.000000	 -0.381158	  0.000000	 48.265016	  0.000000
0.983500	  0.000000	  0.000000	  0.000000	  0.724423	  0.000000	 -0.302794	  0.000000	  0.000000	  0.000000	295.881691	404.326572	-66.358387	  0.320988	  0.000000	 -0.380536	  0.000000	 43.171997	  0.000000
0.984000	  0.000000	  0.000000	  0.000000	  0.726390	  0.000000	 -0.301172	  0.000000	  0.000000	  0.000000	288.433326	389.780104	-60.668960	  0.319306	  0.000000	 -0.379858	  0.000000	 38.009347	  0.000000
0.984500	  0.000000	  0.000000	  0.000000	  0.728358	  0.000000	 -0.299550	  0.000000	  0.000000	  0.000000	280.830578	375.413539	-54.977331	  0.317940	  0.000000	 -0.379130	  0.000000	 32.819651	  0.000000
0.985000	  0.000000	  0.000000	  0.000000	  0.730325	  0.000000	 -0.297928	  0.000000	  0.000000	  0.000000	273.094570	361.223113	-49.320547	  0.316877	  0.000000	 -0.378361	  0.000000	 27.645499	  0.000000
0.985500	  0.000000	  0.000000	  0.000000	  0.732317	  0.000000	 -0.296339	  0.000000	  0.000000	  0.000000	265.246731	347.205880	-43.735008	  0.316102	  0.000000	 -0.377559	  0.000000	 22.528699	  0.000000
0.986000	  0.000000	  0.000000	  0.000000	  0.734310	  0.000000	 -0.294750	  0.000000	  0.000000	  0.000000	257.308665	333.359865	-38.255983	  0.315602	  0.000000	 -0.376734	  0.000000	 17.509527	  0.000000
0.986500	  0.000000	  0.000000	  0.000000	  0.736302	  0.000000	 -0.293161	  0.000000	  0.000000	  0.000000	249.302009	319.684176	-32.917124	  0.315358	  0.000000	 -0.375896	  0.000000	 12.626073	  0.000000
0.987000	  0.000000	  0.000000	  0.000000	  0.738295	  0.000000	 -0.291572	  0.000000	  0.000000	  0.000000	241.248290	306.179100	-27.750003	  0.315353	  0.000000	 -0.375054	  0.000000	  7.913685	  0.000000
0.987500	  0.000000	  0.000000	  0.000000	  0.740287	  0.000000	 -0.289983	  0.000000	  0.000000	  0.000000	233.168754	292.846207	-22.783725	  0.315568	  0.000000	 -0.374219	  0.000000	  3.404508	  0.000000
0.988000	  0.000000	  0.000000	  0.000000	  0.742279	  0.000000	 -0.288395	  0.000000	  0.000000	  0.000000	225.084185	279.688486	-18.044620	  0.315986	  0.000000	 -0.373398	  0.000000	 -0.872871	  0.000000
0.988500	  0.000000	  0.000000	  0.000000	  0.744272	  0.000000	 -0.286806	  0.000000	  0.000000	  0.000000	217.014700	266.710505	-13.556029	  0.316587	  0.000000	 -0.372601	  0.000000	 -4.893695	  0.000000
0.989000	  0.000000	  0.000000	  0.000000	  0.746264	  0.000000	 -0.285217	  0.000000	  0.000000	  0.000000	208.979561	253.918597	 -9.338198	  0.317353	  0.000000	 -0.371835	  0.000000	 -8.637201	  0.000000
0.989500	  0.000000	  0.000000	  0.000000	  0.748257	  0.000000	 -0.283628	  0.000000	  0.000000	  0.000000	200.997025	241.321024	 -5.408252	  0.318267	  0.000000	 -0.371107	  0.000000	-12.086681	  0.000000
0.990000	  0.000000	  0.000000	  0.000000	  0.750249	  0.000000	 -0.282039	  0.000000	  0.000000	  0.000000	193.084258	228.928101	 -1.780266	  0.319310	  0.000000	 -0.370422	  0.000000	-15.229415	  0.000000
0.990500	  0.000000	  0.000000	  0.000000	  0.752279	  0.000000	 -0.280470	  0.000000	  0.000000	  0.000000	185.257324	216.752270	  1.534621	  0.320467	  0.000000	 -0.369786	  0.000000	-18.056496	  0.000000
0.991000	  0.000000	  0.000000	  0.000000	  0.754308	  0.000000	 -0.278901	  0.000000	  0.000000	  0.000000	177.531225	204.808105	  4.528067	  0.327138	 -0.000000	 -0.340933	  0.000000	-20.562564	  0.000000
0.991500	  0.000000	  0.000000	  0.000000	  0.756338	  0.000000	 -0.277333	  0.000000	  0.000000	  0.000000	169.919963	193.112258	  7.194399	  0.333809	 -0.000000	 -0.312080	  0.000000	-22.745497	  0.000000
0.992000	  0.000000	  0.000000	  0.000000	  0.758368	  0.000000	 -0.275764	  0.000000	  0.000000	  0.000000	162.436588	181.683086	  9.530513	  0.340481	 -0.000000	 -0.283227	  0.000000	-24.606106	  0.000000
0.992500	  0.000000	  0.000000	  0.000000	  0.760398	  0.000000	 -0.274195	  0.000000	  0.000000	  0.000000	155.093228	170.539418	 11.535808	  0.347152	 -0.000000	 -0.254374	  0.000000	-26.147862	  0.000000
0.993000	  0.000000	  0.000000	  0.000000	  0.762427	  0.000000	 -0.272626	  0.000000	  0.000000	  0.000000	147.901097	159.698803	 13.212108	  0.353823	 -0.000000	 -0.225520	  0.000000	-27.376673	  0.000000
0.993500	  0.000000	  0.000000	  0.000000	  0.764457	  0.000000	 -0.271057	  0.000000	  0.000000	  0.000000	140.870509	149.176440	 14.563578	  0.360495	  0.000000	 -0.196667	  0.000000	-28.300698	  0.000000
0.994000	  0.000000	  0.000000	  0.000000	  0.766487	  0.000000	 -0.269489	  0.000000	  0.000000	  0.000000	134.010896	138.985032	 15.596606	  0.367166	  0.000000	 -0.167814	  0.000000	-28.930184	  0.000000
0.994500	  0.000000	  0.000000	  0.000000	  0.768516	  0.000000	 -0.267920	  0.000000	  0.000000	  0.000000	127.330864	129.134950	 16.319672	  0.373837	  0.000000	 -0.138961	  0.000000	-29.277296	  0.000000
0.995000	  0.000000	  0.000000	  0.000000	  0.770546	  0.000000	 -0.266351	  0.000000	  0.000000	  0.000000	120.838235	119.634394	 16.743231	  0.380509	  0.000000	 -0.110108	  0.000000	-29.355942	  0.000000
0.995500	  0.000000	  0.000000	  0.000000	  0.772592	  0.000000	 -0.264828	  0.000000	  0.000000	  0.000000	114.540099	110.489548	 16.879619	  0.387180	  0.000000	 -0.081255	  0.000000	-29.181602	  0.000000
0.996000	  0.000000	  0.000000	  0.000000	  0.774638	  0.000000	 -0.263304	  0.000000	  0.000000	  0.000000	108.442824	101.704723	 16.742986	  0.393851	  0.000000	 -0.052401	  0.000000	-28.771182	  0.000000
0.996500	  0.000000	  0.000000	  0.000000	  0.776684	  0.000000	 -0.261781	  0.000000	  0.000000	  0.000000	102.552034	 93.282506	 16.349227	  0.392044	  0.000000	 -0.052676	  0.000000	-28.142892	  0.000000
0.997000	  0.000000	  0.000000	  0.000000	  0.778730	  0.000000	 -0.260257	  0.000000	  0.000000	  0.000000	 96.872552	 85.223892	 15.715908	  0.390236	  0.000000	 -0.052950	  0.000000	-27.316156	  0.000000
0.997500	  0.000000	  0.000000	  0.000000	  0.780777	  0.000000	 -0.258734	  0.000000	  0.000000	  0.000000	 91.408318	 77.528418	 14.862136	  0.388428	  0.000000	 -0.053224	  0.000000	-26.311525	  0.000000
0.998000	  0.000000	  0.000000	  0.000000	  0.782823	  0.000000	 -0.257211	  0.000000	  0.000000	  0.000000	 86.162312	 70.194287	 13.808411	  0.386620	  0.000000	 -0.053498	  0.000000	-25.150576	  0.000000
0.998500	  0.000000	  0.000000	  0.000000	  0.784869	  0.000000	 -0.255687	  0.000000	  0.000000	  0.000000	 81.136499	 63.218492	 12.576438	  0.384812	  0.000000	 -0.053772	  0.000000	-23.855765	  0.000000
0.999000	  0.000000	  0.000000	  0.000000	  0.786915	  0.000000	 -0.254164	  0.000000	  0.000000	  0.000000	 76.331812	 56.596924	 11.188922	  0.383005	  0.000000	 -0.054047	  0.000000	-22.450196	  0.000000
0.999500	  0.000000	  0.000000	  0.000000	  0.788961	  0.000000	 -0.252640	  0.000000	  0.000000	  0.000000	 71.748164	 50.324489	  9.669336	  0.381197	  0.000000	 -0.054321	  0.000000	-20.957323	  0.000000
1.000000	  0.000000	  0.000000	  0.000000	  0.791007	  0.000000	 -0.251117	  0.000000	  0.000000	  0.000000	 67.384498	 44.395204	  8.041671	  0.379389	  0.000000	 -0.054595	  0.000000	-19.400595	  0.000000
1.000500	  0.000000	  0.000000	  0.000000	  0.793100	  0.000000	 -0.249624	  0.000000	  0.000000	  0.000000	 63.238842	 38.802298	  6.330151	  0.377699	  0.000000	 -0.054935	  0.000000	-17.803074	  0.000000
1.001000	  0.000000	  0.000000	  0.000000	  0.795193	  0.000000	 -0.248131	  0.000000	  0.000000	  0.000000	 59.308351	 33.538307	  4.558940	  0.376009	  0.000000	 -0.055274	  0.000000	-16.187072	  0.000000
1.001500	  0.000000	  0.000000	  0.000000	  0.797286	  0.000000	 -0.246638	  0.000000	  0.000000	  0.000000	 55.589359	 28.595155	  2.751843	  0.374319	  0.000000	 -0.055614	  0.000000	-14.573820	  0.000000
1.002000	  0.000000	  0.000000	  0.000000	  0.799379	  0.000000	 -0.245145	  0.000000	  0.000000	  0.000000	 52.077423	 23.964243	  0.932013	  0.372629	  0.000000	 -0.055953	  0.000000	-12.983200	  0.000000
1.002500	  0.000000	  0.000000	  0.000000	  0.801472	  0.000000	 -0.243652	  0.000000	  0.000000	  0.000000	 48.767396	 19.636523	 -0.878329	  0.370939	  0.000000	 -0.056293	  0.000000	-11.433531	  0.000000
1.003000	  0.000000	  0.000000	  0.000000	  0.803565	  0.000000	 -0.242159	  0.000000	  0.000000	  0.000000	 45.653535	 15.602571	 -2.658144	  0.369248	  0.000000	 -0.056633	  0.000000	 -9.941420	  0.000000
1.003500	  0.000000	  0.000000	  0.000000	  0.805658	  0.000000	 -0.240666	  0.000000	  0.000000	  0.000000	 42.729617	 11.852651	 -4.387779	  0.367558	  0.000000	 -0.056972	  0.000000	 -8.521661	  0.000000
1.004000	  0.000000	  0.000000	  0.000000	  0.807751	  0.000000	 -0.239173	  0.000000	  0.000000	  0.000000	  0.000000	  0.000000	  0.000000	  0.365868	  0.000000	 -0.057312	  0.000000	  0.000000	  0.000000
1.004500	  0.000000	  0.000000	  0.000000	  0.809844	  0.000000	 -0.237680	  0.000000	  0.000000	  0.000000	  0.000000	  0.000000	  0.000000	  0.364178	  0.000000	 -0.057651	  0.000000	  0.000000	  0.000000
1.005000	  0.000000	  0.000000	  0.000000	  0.811937	  0.000000	 -0.236187	  0.000000	  0.000000	  0.000000	  0.000000	  0.000000	  0.000000	  0.362488	  0.000000	 -0.057991	  0.000000	  0.000000	  0.000000
1.005500	  0.000000	  0.000000	  0.000000	  0.814037	  0.000000	 -0.234736	  0.000000	  0.000000	  0.000000	  0.000000	  0.000000	  0.000000	  0.360879	  0.000000	 -0.058374	  0.000000	  0.000000	  0.000000
1.006000	  0.000000	  0.000000	  0.000000	  0.816136	  0.000000	 -0.233285	  0.000000	  0.000000	  0.000000	  0.000000	  0.000000	  0.000000	  0.359270	  0.000000	 -0.058756	  0.000000	  0.000000	  0.000000
1.006500	  0.000000	  0.000000	  0.000000	  0.818236	  0.000000	 -0.231834	  0.000000	  0.000000	  0.000000	  0.000000	  0.000000	  0.000000	  0.357661	  0.000000	 -0.059139	  0.000000	  0.000000	  0.000000
1.007000	  0.000000	  0.000000	  0.000000	  0.820336	  0.000000	 -0.230383	  0.000000	  0.000000	  0.000000	  0.000000	  0.000000	  0.000000	  0.356052	  0.000000	 -0.059522	  0.000000	  0.000000	  0.000000
